<svg width="18" height="14" viewBox="0 0 18 14" fill="none" xmlns="http://www.w3.org/2000/svg">
<path d="M15.6667 0.333252H2.33333C1.41666 0.333252 0.674997 1.08325 0.674997 1.99992L0.666664 11.9999C0.666664 12.9166 1.41666 13.6666 2.33333 13.6666H15.6667C16.5833 13.6666 17.3333 12.9166 17.3333 11.9999V1.99992C17.3333 1.08325 16.5833 0.333252 15.6667 0.333252ZM15.3333 3.87492L9.44166 7.55825C9.175 7.72492 8.825 7.72492 8.55833 7.55825L2.66666 3.87492C2.5831 3.82801 2.50993 3.76464 2.45157 3.68863C2.39321 3.61262 2.35088 3.52557 2.32714 3.43273C2.3034 3.33989 2.29875 3.2432 2.31346 3.14851C2.32817 3.05382 2.36194 2.9631 2.41273 2.88184C2.46352 2.80058 2.53027 2.73046 2.60894 2.67575C2.6876 2.62103 2.77656 2.58284 2.87041 2.5635C2.96426 2.54416 3.06107 2.54406 3.15496 2.56321C3.24885 2.58236 3.33788 2.62036 3.41666 2.67492L9 6.16658L14.5833 2.67492C14.6621 2.62036 14.7511 2.58236 14.845 2.56321C14.9389 2.54406 15.0357 2.54416 15.1296 2.5635C15.2234 2.58284 15.3124 2.62103 15.3911 2.67575C15.4697 2.73046 15.5365 2.80058 15.5873 2.88184C15.6381 2.9631 15.6718 3.05382 15.6865 3.14851C15.7012 3.2432 15.6966 3.33989 15.6729 3.43273C15.6491 3.52557 15.6068 3.61262 15.5484 3.68863C15.4901 3.76464 15.4169 3.82801 15.3333 3.87492Z" fill="#BDBDBD"/>
</svg>
