<svg width="14" height="14" viewBox="0 0 14 14" fill="none" xmlns="http://www.w3.org/2000/svg">
<g clip-path="url(#clip0_1_95)">
<path d="M11.6667 13.3583C11.6084 13.3583 11.5501 13.3583 11.4917 13.3583C9.62506 13.125 7.75839 12.4833 6.18339 11.4917C4.72506 10.5583 3.44172 9.27501 2.50839 7.81668C1.45839 6.24168 0.816724 4.37501 0.641724 2.50835C0.641724 2.04168 0.75839 1.57501 1.05006 1.22501C1.34172 0.875014 1.75006 0.641681 2.21672 0.583348C2.27506 0.583348 2.33339 0.583348 2.39172 0.583348H4.14172C5.01672 0.583348 5.77506 1.22501 5.89172 2.10001C5.95006 2.62501 6.06672 3.15001 6.24172 3.61668C6.47506 4.25835 6.30006 4.95835 5.83339 5.48335L5.42506 5.89168C6.12506 6.94168 7.00006 7.87501 8.10839 8.57501L8.51672 8.16668C8.98339 7.70001 9.74172 7.52502 10.3834 7.75835C10.8501 7.93335 11.3751 8.05001 11.9001 8.10835C12.7751 8.22501 13.4167 8.98335 13.4167 9.85835V11.6083C13.4167 12.075 13.2417 12.5417 12.8917 12.8333C12.5417 13.125 12.1334 13.3583 11.6667 13.3583ZM4.14172 1.75001H2.39172C2.21672 1.75001 2.04172 1.86668 1.92506 1.98335C1.86672 2.10001 1.80839 2.21668 1.80839 2.39168C1.98339 4.08335 2.56672 5.71668 3.50006 7.17502C4.37506 8.51668 5.48339 9.68335 6.82506 10.5C8.28339 11.4333 9.91672 12.0167 11.6084 12.1917C11.8417 12.1917 11.9584 12.1333 12.0751 12.0167C12.1917 11.9 12.2501 11.7833 12.2501 11.6083V9.85835C12.2501 9.56668 12.0167 9.33335 11.7251 9.27501C11.1417 9.21668 10.5584 9.04168 9.97506 8.80835C9.74172 8.75002 9.50839 8.75002 9.33339 8.92502L8.57506 9.68335C8.40006 9.85835 8.10839 9.91668 7.87506 9.80001C6.30006 8.92501 5.01672 7.64168 4.14172 6.06668C4.08339 5.83335 4.14172 5.54168 4.31672 5.36668L5.07506 4.60835C5.19172 4.49168 5.25006 4.20001 5.19172 4.02501C4.95839 3.44168 4.84172 2.85835 4.72506 2.27501C4.72506 1.98335 4.43339 1.75001 4.14172 1.75001ZM11.0834 5.83335C10.7917 5.83335 10.5584 5.65835 10.5001 5.36668C10.3251 4.43335 9.56672 3.73335 8.63339 3.50001C8.34172 3.44168 8.10839 3.15001 8.16672 2.80001C8.22506 2.50835 8.51672 2.27501 8.86672 2.33335C10.2667 2.62501 11.3751 3.67501 11.6084 5.07501C11.6667 5.36668 11.4917 5.71668 11.1417 5.77501C11.1417 5.77501 11.1417 5.83335 11.0834 5.83335ZM13.4167 5.77501C13.1251 5.77501 12.8917 5.54168 12.8334 5.25001C12.6001 3.09168 10.9084 1.40001 8.69172 1.10835C8.40006 1.05001 8.16672 0.758348 8.16672 0.466681C8.16672 0.175014 8.51672 -0.0583191 8.80839 -0.0583191C11.5501 0.233348 13.6501 2.33335 13.9417 5.07501C14.0001 5.36668 13.7667 5.65835 13.4167 5.71668C13.4751 5.77501 13.4167 5.77501 13.4167 5.77501Z" fill="white"/>
</g>
<defs>
<clipPath id="clip0_1_95">
<rect width="14" height="14" fill="white"/>
</clipPath>
</defs>
</svg>
