<svg width="20" height="20" viewBox="0 0 20 20" fill="none" xmlns="http://www.w3.org/2000/svg">
<path d="M17.1667 9.54079H19.0833C19.0833 4.62454 15.3717 0.916748 10.4487 0.916748V2.83341C14.3415 2.83341 17.1667 5.65379 17.1667 9.54079Z" fill="#BDBDBD"/>
<path d="M10.4583 6.66672C12.4737 6.66672 13.3333 7.52635 13.3333 9.54172H15.25C15.25 6.4511 13.549 4.75006 10.4583 4.75006V6.66672ZM13.7378 11.8829C13.5536 11.7156 13.3116 11.6263 13.0629 11.634C12.8142 11.6417 12.5782 11.7457 12.4047 11.9241L10.1114 14.2826C9.55942 14.1772 8.44967 13.8312 7.30733 12.6918C6.165 11.5485 5.81904 10.4359 5.7165 9.88768L8.07304 7.59343C8.25169 7.4201 8.35588 7.18405 8.36357 6.93526C8.37126 6.68646 8.28185 6.44443 8.11425 6.26039L4.57321 2.36668C4.40554 2.18206 4.17251 2.07008 3.9236 2.05451C3.6747 2.03895 3.42953 2.12102 3.24017 2.28331L1.16058 4.06677C0.994898 4.23305 0.896006 4.45436 0.882666 4.68872C0.868291 4.92831 0.594208 10.6036 4.99487 15.0061C8.83396 18.8443 13.6429 19.1251 14.9673 19.1251C15.1609 19.1251 15.2797 19.1193 15.3113 19.1174C15.5457 19.1043 15.7669 19.0049 15.9323 18.8385L17.7148 16.758C17.8772 16.5687 17.9595 16.3236 17.9441 16.0747C17.9287 15.8258 17.8169 15.5927 17.6324 15.4249L13.7378 11.8829Z" fill="#BDBDBD"/>
</svg>
